<?xml version="1.0" encoding="UTF-8" standalone="no"?>
<!-- Created with Inkscape (http://www.inkscape.org/) -->

<svg
   width="512"
   height="512"
   viewBox="0 0 512 512"
   version="1.1"
   id="svg1"
   xmlns="http://www.w3.org/2000/svg"
   xmlns:svg="http://www.w3.org/2000/svg">
  <defs
     id="defs1" />
  <g
     id="layer1">
    <path
       d="m 196.40058,9.5860199 5.71925,23.1551461 A 229.75435,230.12804 0 0 0 138.24907,59.199661 L 126.01297,38.751867 A 253.26753,253.67946 0 0 1 196.40058,9.5860199 Z m 122.02546,0 -5.71926,23.1551461 a 229.75435,230.12804 0 0 1 63.87077,26.458495 L 388.89277,38.751867 A 253.26753,253.67946 0 0 0 318.42604,9.5860199 Z M 39.73363,125.16838 a 253.26753,253.67946 0 0 0 -29.118487,70.50209 l 23.120711,5.72856 A 229.75435,230.12804 0 0 1 60.151385,137.42438 Z M 27.022777,256.78243 A 229.99173,230.3658 0 0 1 29.60546,222.20822 L 6.0479716,218.6259 a 255.13491,255.54988 0 0 0 0,76.31307 L 29.60546,291.35664 A 229.99173,230.3658 0 0 1 27.022777,256.78243 Z M 388.81998,474.81299 376.58388,454.3652 a 229.75435,230.12804 0 0 1 -63.79481,26.45532 l 5.72242,23.15515 a 253.26753,253.67946 0 0 0 70.30849,-29.16268 z M 487.807,256.78243 a 229.99173,230.3658 0 0 1 -2.58268,34.57421 l 23.55432,3.58233 a 255.13491,255.54988 0 0 0 0,-76.31307 l -23.55432,3.58232 a 229.99173,230.3658 0 0 1 2.58268,34.57421 z m 16.40447,61.11197 -23.11754,-5.72856 a 229.75435,230.12804 0 0 1 -26.41553,63.97465 l 20.41459,12.33525 A 253.26753,253.67946 0 0 0 504.21147,317.8944 Z M 291.93454,484.99885 a 232.01736,232.39473 0 0 1 -69.03613,0 l -3.57651,23.59263 a 255.13491,255.54988 0 0 0 76.18915,0 z m 150.94454,-91.3113 a 231.22294,231.59901 0 0 1 -48.81777,48.85914 l 14.14145,19.21775 a 254.619,255.03314 0 0 0 53.86286,-53.79196 z M 394.06131,71.02451 a 231.22294,231.59901 0 0 1 48.81777,48.89719 l 19.18654,-14.32297 A 254.619,255.03314 0 0 0 408.36102,51.806753 Z M 71.953867,119.9217 A 231.22294,231.59901 0 0 1 120.77165,71.02451 L 106.47194,51.806753 A 254.619,255.03314 0 0 0 52.770482,105.59873 Z m 403.132793,5.25302 -20.4146,12.25283 a 229.75435,230.12804 0 0 1 26.41237,63.89856 l 23.12071,-5.72855 A 253.26753,253.67946 0 0 0 475.08666,125.17472 Z M 222.89207,28.610395 a 232.01736,232.39473 0 0 1 69.03614,0 l 3.57651,-23.5926343 a 255.13491,255.54988 0 0 0 -76.18599,0 z M 84.180466,468.09534 34.963895,479.59682 46.443542,430.3002 23.243704,424.84746 11.767223,474.14408 a 23.832848,23.871611 0 0 0 28.640563,28.68714 L 89.583212,491.53263 Z M 28.209671,403.5659 51.409509,408.97426 59.353791,374.7995 A 229.3967,229.76981 0 0 1 33.732689,312.17218 l -23.120711,5.72856 A 252.31485,252.72523 0 0 0 34.04603,378.4167 Z m 111.223119,51.72182 -34.11926,7.95721 5.39958,23.23757 25.1052,-5.85219 a 252.31485,252.72523 0 0 0 60.41769,23.47534 l 5.71925,-23.15515 a 229.3967,229.76981 0 0 1 -62.3642,-25.82129 z M 257.40697,49.914143 A 206.55451,206.89047 0 0 0 82.632755,366.89619 L 62.768884,451.76246 147.49736,431.86628 A 206.55451,206.89047 0 1 0 257.41014,49.920484 Z"
       fill="#3a76f0"
       id="path1"
       style="stroke-width:3.16763" />
  </g>
</svg>
