<?xml version="1.0" encoding="UTF-8" standalone="no"?>
<!-- Created with Inkscape (http://www.inkscape.org/) -->

<svg
   width="512"
   height="512"
   viewBox="0 0 512 512"
   version="1.1"
   id="svg1"
   xmlns="http://www.w3.org/2000/svg"
   xmlns:svg="http://www.w3.org/2000/svg">
  <defs
     id="defs1">
    <filter
       style="color-interpolation-filters:sRGB"
       id="filter1"
       x="0"
       y="0"
       width="1"
       height="1">
      <feColorMatrix
         values="0.21 0.72 0.072 -9.34426 0 0.21 0.72 0.072 -9.34426 0 0.21 0.72 0.072 -9.34426 0 0 0 0 1 0 "
         id="feColorMatrix1" />
    </filter>
  </defs>
  <g
     id="layer1"
     style="filter:url(#filter1)">
    <path
       d="m 196.40058,9.5860199 5.71925,23.1551461 A 229.75435,230.12804 0 0 0 138.24907,59.199661 L 126.01297,38.751867 A 253.26753,253.67946 0 0 1 196.40058,9.5860199 Z m 122.02546,0 -5.71926,23.1551461 a 229.75435,230.12804 0 0 1 63.87077,26.458495 L 388.89277,38.751867 A 253.26753,253.67946 0 0 0 318.42604,9.5860199 Z M 39.73363,125.16838 a 253.26753,253.67946 0 0 0 -29.118487,70.50209 l 23.120711,5.72856 A 229.75435,230.12804 0 0 1 60.151385,137.42438 Z M 27.022777,256.78243 A 229.99173,230.3658 0 0 1 29.60546,222.20822 L 6.0479716,218.6259 a 255.13491,255.54988 0 0 0 0,76.31307 L 29.60546,291.35664 A 229.99173,230.3658 0 0 1 27.022777,256.78243 Z M 388.81998,474.81299 376.58388,454.3652 a 229.75435,230.12804 0 0 1 -63.79481,26.45532 l 5.72242,23.15515 a 253.26753,253.67946 0 0 0 70.30849,-29.16268 z M 487.807,256.78243 a 229.99173,230.3658 0 0 1 -2.58268,34.57421 l 23.55432,3.58233 a 255.13491,255.54988 0 0 0 0,-76.31307 l -23.55432,3.58232 a 229.99173,230.3658 0 0 1 2.58268,34.57421 z m 16.40447,61.11197 -23.11754,-5.72856 a 229.75435,230.12804 0 0 1 -26.41553,63.97465 l 20.41459,12.33525 A 253.26753,253.67946 0 0 0 504.21147,317.8944 Z M 291.93454,484.99885 a 232.01736,232.39473 0 0 1 -69.03613,0 l -3.57651,23.59263 a 255.13491,255.54988 0 0 0 76.18915,0 z m 150.94454,-91.3113 a 231.22294,231.59901 0 0 1 -48.81777,48.85914 l 14.14145,19.21775 a 254.619,255.03314 0 0 0 53.86286,-53.79196 z M 394.06131,71.02451 a 231.22294,231.59901 0 0 1 48.81777,48.89719 l 19.18654,-14.32297 A 254.619,255.03314 0 0 0 408.36102,51.806753 Z M 71.953867,119.9217 A 231.22294,231.59901 0 0 1 120.77165,71.02451 L 106.47194,51.806753 A 254.619,255.03314 0 0 0 52.770482,105.59873 Z m 403.132793,5.25302 -20.4146,12.25283 a 229.75435,230.12804 0 0 1 26.41237,63.89856 l 23.12071,-5.72855 A 253.26753,253.67946 0 0 0 475.08666,125.17472 Z M 222.89207,28.610395 a 232.01736,232.39473 0 0 1 69.03614,0 l 3.57651,-23.5926343 a 255.13491,255.54988 0 0 0 -76.18599,0 z M 84.180466,468.09534 34.963895,479.59682 46.443542,430.3002 23.243704,424.84746 11.767223,474.14408 a 23.832848,23.871611 0 0 0 28.640563,28.68714 L 89.583212,491.53263 Z M 28.209671,403.5659 51.409509,408.97426 59.353791,374.7995 A 229.3967,229.76981 0 0 1 33.732689,312.17218 l -23.120711,5.72856 A 252.31485,252.72523 0 0 0 34.04603,378.4167 Z m 111.223119,51.72182 -34.11926,7.95721 5.39958,23.23757 25.1052,-5.85219 a 252.31485,252.72523 0 0 0 60.41769,23.47534 l 5.71925,-23.15515 a 229.3967,229.76981 0 0 1 -62.3642,-25.82129 z M 257.40697,49.914143 A 206.55451,206.89047 0 0 0 82.632755,366.89619 L 62.768884,451.76246 147.49736,431.86628 A 206.55451,206.89047 0 1 0 257.41014,49.920484 Z"
       fill="#3a76f0"
       id="path1"
       style="stroke-width:3.16763" />
  </g>
  <path
     style="fill:#414141;fill-opacity:1;stroke-width:0.904914"
     d="m 242.517,462.77487 c -15.40956,-1.86749 -19.67764,-2.50549 -27.43941,-4.10162 -18.82288,-3.87074 -41.61794,-12.48582 -58.13294,-21.97055 -4.8445,-2.78225 -9.20917,-5.05863 -9.69927,-5.05863 -0.4901,0 -19.20639,4.29459 -41.59177,9.54352 -22.385372,5.24895 -40.996827,9.42287 -41.358785,9.27537 -0.361958,-0.14748 3.729116,-18.99987 9.091276,-41.8942 l 9.749381,-41.62605 -3.895428,-6.78686 C 66.805298,338.49125 58.461588,315.11852 54.204396,290.025 51.830653,276.03324 50.97145,250.8255 52.397711,237.01951 55.730807,204.75567 67.735982,170.43861 84.822053,144.33381 118.86396,92.323209 173.82832,58.60162 236.10104,51.521544 c 13.85762,-1.575537 42.01217,-0.644003 56.18624,1.859005 75.42237,13.318873 136.72516,66.277811 160.95342,139.046201 6.91463,20.76778 10.07537,41.02363 10.07537,64.56888 0,32.94554 -6.58153,61.1662 -21.20964,90.94388 -30.02489,61.12016 -86.61854,102.4697 -154.79617,113.10018 -8.76892,1.36727 -38.36794,2.51387 -44.79326,1.73518 z"
     id="path2" />
  <path
     style="fill:#414141;fill-opacity:1;stroke-width:0.904914"
     d="m 132.39926,48.408167 -5.60016,-9.457331 9.21981,-5.177386 c 14.86183,-8.345656 36.20703,-17.043027 53.61502,-21.846111 l 6.3888,-1.762752 2.74344,11.110598 2.74343,11.110598 -5.96504,1.582273 c -14.79861,3.925448 -34.1736,11.837577 -49.18709,20.08644 -3.86401,2.123006 -7.32531,3.848985 -7.69177,3.835506 -0.36646,-0.01348 -3.18636,-4.280303 -6.26644,-9.481835 z"
     id="path3" />
  <path
     style="fill:#414141;fill-opacity:1;stroke-width:0.904914"
     d="m 62.691829,112.28082 -9.193724,-6.73445 2.848879,-3.68159 C 69.867353,84.392479 88.72321,65.740111 105.50083,53.241394 c 0.62432,-0.465093 3.34956,2.532546 7.46554,8.211754 3.56527,4.919328 6.4823,9.165872 6.4823,9.436764 0,0.270891 -2.54507,2.433756 -5.65571,4.806365 -8.45594,6.449673 -27.094459,24.953183 -34.966066,34.712783 l -6.941341,8.60621 z"
     id="path4" />
  <path
     style="fill:#414141;fill-opacity:1;stroke-width:0.904914"
     d="M 25.337597,198.95139 C 9.8753911,194.90778 11.505662,195.76944 12.202545,192.00902 14.659726,178.74993 27.713128,146.86255 37.715026,129.6861 l 2.206198,-3.78874 9.22287,5.52133 c 5.072579,3.03674 9.368996,5.63435 9.547593,5.77248 0.178596,0.13812 -3.170017,7.29908 -7.441363,15.91323 -6.879009,13.87311 -13.833828,31.99561 -16.862978,43.94067 -0.536404,2.11523 -1.264992,3.80882 -1.619086,3.76353 -0.354093,-0.0453 -3.697892,-0.88103 -7.430663,-1.85721 z"
     id="path5" />
  <path
     style="fill:#414141;fill-opacity:1;stroke-width:0.904914"
     d="M 6.0048602,291.15614 C 4.477283,282.69488 3.4360465,261.34337 3.919746,248.39895 c 0.4363991,-11.67861 1.9998388,-28.41019 2.7190828,-29.09903 0.1390425,-0.13316 12.7644152,1.75021 19.4833752,2.90641 2.96279,0.50984 3.031633,0.61974 2.494079,3.98142 -1.678093,10.49422 -2.386799,30.99154 -1.521182,43.99596 0.508431,7.63832 1.174535,15.452 1.480233,17.36372 l 0.555814,3.47587 -10.281413,1.53691 c -5.654778,0.8453 -10.7387272,1.5369 -11.297666,1.5369 -0.5589387,0 -1.2551827,-1.32343 -1.5472088,-2.94097 z"
     id="path6" />
  <path
     style="fill:#414141;fill-opacity:1;stroke-width:0.904914"
     d="m 38.91131,405.66182 c -5.225879,-1.25319 -9.621136,-2.3851 -9.767236,-2.51536 -0.146101,-0.13026 0.999636,-5.74183 2.546082,-12.47017 L 34.501875,378.44295 30.694288,370.883 C 23.38229,356.36505 11.763885,324.8064 11.763885,319.46303 c 0,-1.11877 2.472708,-2.06838 10.455896,-4.01544 5.750743,-1.40258 10.618047,-2.388 10.816232,-2.18982 0.198184,0.19819 1.797112,5.1004 3.553172,10.8938 4.924989,16.248 12.120088,33.32953 18.942126,44.96956 l 3.275793,5.58929 -3.809266,16.70294 c -2.947493,12.92423 -4.123235,16.68304 -5.197097,16.61497 -0.763308,-0.0484 -5.663551,-1.11331 -10.889431,-2.36651 z"
     id="path7" />
  <path
     style="fill:#414141;fill-opacity:1;stroke-width:0.904914"
     d="m 28.024631,501.79324 c -8.84869,-2.8375 -16.233179,-12.55137 -16.251906,-21.37845 -0.0069,-3.24325 11.081893,-53.82869 12.001256,-54.74806 0.178513,-0.17851 4.919939,0.89644 20.205219,4.58081 1.863544,0.44919 1.78989,0.93154 -3.768774,24.68134 -3.118205,13.32275 -5.487953,24.40546 -5.266106,24.62824 0.311786,0.31311 37.310835,-7.90871 47.01077,-10.44659 1.722327,-0.45062 2.06936,0.37884 4.389478,10.49151 1.385612,6.03945 2.339674,11.16044 2.12014,11.37997 -0.717671,0.71768 -48.088282,11.36877 -52.26814,11.75229 -2.239663,0.2055 -5.917035,-0.21798 -8.171937,-0.94106 z"
     id="path8" />
  <path
     style="fill:#414141;fill-opacity:1;stroke-width:0.904914"
     d="m 184.6025,500.425 c -12.54461,-3.80012 -24.26068,-8.40748 -37.3293,-14.67978 l -11.53925,-5.53828 -11.08361,2.54739 c -6.09598,1.40106 -11.66764,2.58895 -12.38147,2.63976 -0.93382,0.0665 -1.99939,-2.9454 -3.79901,-10.73806 -1.37563,-5.95674 -2.42044,-10.9017 -2.3218,-10.9888 0.0986,-0.0871 7.65745,-1.89952 16.79733,-4.02759 14.47006,-3.36911 16.8678,-3.71229 18.55075,-2.65505 4.43613,2.78679 25.15201,12.69472 32.752,15.66453 4.50801,1.76157 12.04142,4.32468 16.74091,5.6958 4.69949,1.37112 8.89824,2.79313 9.33057,3.16001 0.43232,0.36689 -0.3642,5.38314 -1.77004,11.14722 -1.90703,7.81907 -2.91081,10.46705 -3.95323,10.42859 -0.76844,-0.0284 -5.26568,-1.22344 -9.99385,-2.65574 z"
     id="path9" />
  <path
     style="fill:#414141;fill-opacity:1;stroke-width:0.904914"
     d="m 244.32683,510.74198 c -17.01967,-1.46481 -24.42652,-2.50389 -24.37409,-3.41937 0.0322,-0.56272 0.76057,-5.50244 1.61855,-10.97717 l 1.55996,-9.95406 4.03716,0.17055 c 28.83381,1.21813 43.3249,1.30775 52.83935,0.32681 8.26869,-0.8525 10.87117,-0.85948 11.38349,-0.0305 0.36529,0.59105 1.15763,4.79992 1.76076,9.35304 0.60313,4.55313 1.29542,9.13551 1.53843,10.18307 0.41606,1.79357 -0.10292,1.9657 -8.89866,2.95132 -10.09066,1.13074 -34.85958,1.96483 -41.46495,1.39634 z"
     id="path10" />
  <path
     style="fill:#414141;fill-opacity:1;stroke-width:0.904914"
     d="m 316.35884,493.39273 c -1.29449,-5.41379 -2.35157,-10.42546 -2.34907,-11.13704 0.003,-0.85443 2.66863,-2.0298 7.84939,-3.46108 12.4583,-3.44183 27.29188,-9.40527 41.47127,-16.67241 l 13.12688,-6.72771 4.68126,7.80667 c 2.57468,4.29367 5.20895,8.63664 5.85391,9.65105 1.10458,1.73729 0.58289,2.166 -8.9861,7.38452 -5.58732,3.04708 -14.50397,7.41437 -19.81478,9.70508 -9.49292,4.09458 -31.03799,11.57212 -36.6295,12.71282 l -2.84964,0.58134 z"
     id="path11" />
  <path
     style="fill:#414141;fill-opacity:1;stroke-width:0.904914"
     d="m 401.78007,452.06467 c -3.48291,-4.69517 -6.31659,-8.86908 -6.29706,-9.27537 0.0195,-0.4063 2.95388,-2.97838 6.5208,-5.71574 8.50067,-6.5237 26.89157,-24.79885 34.1492,-33.93429 3.1632,-3.98162 6.0128,-7.54937 6.33246,-7.92834 0.59938,-0.71057 17.4276,11.41823 17.96408,12.94747 0.52641,1.50051 -14.61749,19.02605 -26.2085,30.33026 -9.55384,9.31745 -24.44415,22.11266 -25.73341,22.11266 -0.21725,0 -3.24466,-3.84149 -6.72757,-8.53665 z"
     id="path12" />
  <path
     style="fill:#414141;fill-opacity:1;stroke-width:0.904914"
     d="m 464.47689,381.50127 c -8.60085,-5.2503 -9.16031,-5.76583 -8.0215,-7.39171 5.80838,-8.29261 18.51381,-37.733 22.28781,-51.64418 1.10055,-4.05671 2.30942,-7.87485 2.68636,-8.48476 0.52376,-0.84746 3.17796,-0.501 11.2569,1.46942 l 10.57155,2.57836 -0.58794,3.19167 c -1.04051,5.6485 -7.7947,25.50969 -12.31768,36.22104 -4.71857,11.17457 -14.31616,29.14154 -15.75349,29.49103 -0.48198,0.11719 -5.03688,-2.3267 -10.12201,-5.43087 z"
     id="path13" />
  <path
     style="fill:#414141;fill-opacity:1;stroke-width:0.904914"
     d="m 494.98806,292.50474 c -4.72817,-0.74528 -8.73265,-1.47261 -8.89884,-1.61629 -0.16619,-0.14367 0.167,-4.06163 0.74042,-8.70657 1.31484,-10.65062 1.34144,-39.24753 0.0469,-50.42515 -0.5413,-4.6739 -0.82747,-8.65471 -0.63592,-8.84626 0.19155,-0.19155 4.17234,-0.94257 8.8462,-1.66893 4.67386,-0.72636 9.56709,-1.50997 10.87384,-1.74134 2.3568,-0.41729 2.3841,-0.35691 3.39206,7.50273 2.37429,18.51379 2.15679,46.89546 -0.48817,63.70075 -0.62217,3.9531 -0.40362,3.92473 -13.87649,1.80106 z"
     id="path14" />
  <path
     style="fill:#414141;fill-opacity:1;stroke-width:0.904914"
     d="m 480.46598,196.93702 c -3.61187,-14.06393 -11.31699,-33.63156 -19.19227,-48.73997 -3.04331,-5.83847 -5.35581,-10.75976 -5.1389,-10.93621 0.21692,-0.17644 4.5469,-2.80675 9.62218,-5.84511 l 9.22779,-5.52431 3.11184,5.60154 c 9.36381,16.85552 17.29316,35.42684 22.24955,52.11067 1.53236,5.15815 2.78612,9.88572 2.78612,10.50572 0,0.68594 -4.24899,2.19179 -10.85318,3.84638 l -10.85319,2.71912 z"
     id="path15" />
  <path
     style="fill:#414141;fill-opacity:1;stroke-width:0.904914"
     d="m 438.4182,113.18233 c -6.5789,-8.64358 -24.8866,-27.22137 -34.61915,-35.129879 -4.91739,-3.995786 -8.24809,-7.338439 -7.98788,-8.016539 0.24547,-0.639684 3.18941,-4.825251 6.54208,-9.301258 l 6.09576,-8.138195 3.67953,2.847245 c 16.6699,12.899286 33.816,30.042011 46.4469,46.437766 l 2.84907,3.69828 -9.24724,6.7652 -9.24723,6.76519 z"
     id="path16" />
  <path
     style="fill:#414141;fill-opacity:1;stroke-width:0.904914"
     d="M 364.22796,51.951683 C 351.62612,45.261511 334.44859,38.262522 322.07824,34.777764 l -8.66791,-2.441768 2.56209,-10.512284 c 1.40915,-5.781757 2.66283,-10.780287 2.78596,-11.107845 0.30221,-0.8039545 17.99979,4.479282 29.18113,8.711405 9.60513,3.63553 27.64516,12.13694 35.47712,16.718686 l 4.71003,2.755401 -5.61495,9.482069 c -3.08822,5.215138 -6.02216,9.448564 -6.51986,9.407613 -0.49771,-0.04095 -5.79145,-2.668662 -11.76389,-5.839358 z"
     id="path17" />
  <path
     style="fill:#414141;fill-opacity:1;stroke-width:0.904914"
     d="m 223.1126,26.109374 c -0.96293,-4.249959 -3.25501,-20.0400567 -2.95286,-20.342208 2.48184,-2.4818387 53.37973,-3.5659391 67.08889,-1.428961 3.94773,0.6153701 7.29172,1.2328746 7.43107,1.372232 0.37176,0.3717547 -2.94957,21.390872 -3.46086,21.90216 -0.23884,0.238842 -3.45565,0.05829 -7.14845,-0.401216 -17.48043,-2.175163 -44.09667,-1.943513 -57.57501,0.501093 -2.51021,0.455285 -2.96526,0.239638 -3.38278,-1.6031 z"
     id="path18" />
</svg>
